<svg width="788" height="213" viewBox="0 0 788 213" fill="none" xmlns="http://www.w3.org/2000/svg">
<path d="M270.988 95.3289C270.988 127.662 261.277 143.829 241.856 143.829C236.238 143.707 230.772 141.987 226.096 138.872C221.128 135.882 216.93 131.767 213.842 126.859C207.017 135.928 202.963 141.158 201.679 142.549C196.238 148.198 190.635 151.027 184.871 151.034C179.852 151.034 174.307 148.314 168.235 142.872C163.391 138.608 159.421 133.444 156.545 127.666C153.874 116.185 152.425 104.452 152.222 92.6658C152.282 84.2878 153.084 75.9315 154.62 67.6952C154.189 53.2999 159.765 39.777 171.348 27.1265C182.93 14.4759 195.923 8.15446 210.325 8.16215C232.306 8.16215 248.631 19.045 259.298 40.8108C267.092 56.6663 270.988 74.839 270.988 95.3289Z" fill="white" stroke="black" stroke-width="6" stroke-linejoin="round"/>
<path d="M360.933 91.8127C360.933 108.567 353.947 122.017 339.975 132.162C327.989 140.882 313.501 145.485 298.68 145.282C287.151 145.282 277.652 142.826 270.181 137.915C261.327 132.159 256.9 123.835 256.9 112.944C256.9 109.217 258.768 104.844 262.503 99.825C266.861 93.8456 271.73 91.0749 277.11 91.513C270.897 88.2892 265.796 83.2726 262.469 77.1139C258.894 70.9881 256.99 64.0314 256.947 56.9391C256.947 43.1049 263.241 30.6196 275.83 19.4831C287.989 8.82313 301.116 3.48928 315.211 3.4816C323.742 3.4816 332.543 6.94014 341.612 13.8572C351.219 21.1048 356.022 28.8404 356.022 37.064C356.022 43.5661 354.689 48.4196 352.022 51.6245C348.387 56.0053 341.131 59.5253 330.256 62.1846C341.569 66.0274 348.663 68.9633 351.538 70.9923C357.801 75.45 360.933 82.3901 360.933 91.8127Z" fill="white" stroke="black" stroke-width="6" stroke-linejoin="round"/>
<path d="M451.847 91.8127C451.847 108.567 444.857 122.017 430.877 132.162C418.891 140.882 404.402 145.485 389.582 145.282C378.053 145.282 368.557 142.826 361.095 137.915C352.241 132.159 347.814 123.835 347.814 112.944C347.814 109.217 349.682 104.844 353.417 99.825C357.782 93.8533 362.636 91.0787 367.977 91.5015C361.761 88.2812 356.66 83.2636 353.336 77.1024C349.754 70.9798 347.849 64.021 347.814 56.9276C347.814 43.0934 354.109 30.6081 366.698 19.4716C378.856 8.81157 391.979 3.47775 406.067 3.47006C414.606 3.47006 423.41 6.9286 432.479 13.8457C442.086 21.0932 446.89 28.8288 446.89 37.0525C446.89 43.5545 445.556 48.408 442.889 51.6129C439.262 55.9938 432.002 59.5138 421.112 62.173C432.425 66.0159 439.523 68.9518 442.405 70.9808C448.7 75.4461 451.847 82.3901 451.847 91.8127Z" fill="white" stroke="black" stroke-width="6" stroke-linejoin="round"/>
<path d="M550.6 77.2407C547.718 83.3278 541.477 89.5724 531.877 95.9745C535.693 98.0139 539.151 100.662 542.115 103.814C545.958 107.772 547.879 111.4 547.879 114.697C547.879 123.981 541.423 131.344 528.511 136.785C519.929 140.56 510.678 142.574 501.304 142.711C484.334 142.711 470.5 137.588 459.801 127.343C449.103 117.098 443.769 103.549 443.8 86.6941C443.8 68.971 449.08 52.3239 459.64 36.7528C472.022 18.4993 487.654 9.37647 506.538 9.38416C513.578 9.38416 521.529 11.8897 530.39 16.9007C540.305 22.5574 545.266 28.4792 545.273 34.6661C545.273 38.4167 542.818 42.6861 537.907 47.4742C534.519 50.8445 530.701 53.7518 526.551 56.1206L532.316 59.5791C535.52 61.5082 538.084 63.1107 540.005 64.3865C544.871 67.3706 548.6 71.8949 550.6 77.2407Z" fill="white" stroke="black" stroke-width="6" stroke-linejoin="round"/>
<path d="M640.868 91.8127C640.868 108.567 633.881 122.017 619.909 132.162C607.923 140.882 593.435 145.485 578.614 145.282C567.085 145.282 557.586 142.826 550.116 137.915C541.262 132.159 536.835 123.835 536.835 112.944C536.835 109.217 538.702 104.844 542.438 99.825C546.811 93.8533 551.664 91.0787 556.998 91.5015C550.785 88.2777 545.684 83.261 542.357 77.1024C538.782 70.9766 536.878 64.0199 536.835 56.9276C536.835 43.0934 543.129 30.6081 555.718 19.4716C567.885 8.81157 581.012 3.47775 595.1 3.47006C603.631 3.47006 612.431 6.9286 621.5 13.8457C631.099 21.0932 635.903 28.8288 635.91 37.0525C635.91 43.5545 634.577 48.408 631.91 51.6129C628.282 55.9938 621.027 59.5138 610.144 62.173C621.458 66.0159 628.551 68.9518 631.426 70.9808C637.72 75.4461 640.868 82.3901 640.868 91.8127Z" fill="white" stroke="black" stroke-width="6" stroke-linejoin="round"/>
<path d="M65.6892 169.907C65.7506 171.92 65.2097 173.907 64.1355 175.612C63.0614 177.316 61.503 178.661 59.6598 179.475C57.4233 180.628 53.7803 181.47 48.7654 181.919C43.7505 182.369 40.4303 182.968 38.8278 183.729C38.2975 184.801 37.8825 187.983 37.5943 193.309C37.2945 197.863 36.3838 201.137 34.839 203.143C32.5333 206.11 28.2793 207.589 22.077 207.582C13.6842 207.582 8.15826 202.943 5.49902 193.667C4.26163 189.347 3.64296 182.43 3.64296 172.916C3.64296 171.624 3.64294 169.653 3.55071 167.024C3.45848 164.396 3.4585 162.413 3.4585 161.122C3.4585 150.554 4.76119 142.868 7.36663 138.065C11.0942 131.217 17.9767 127.789 28.0141 127.782C32.6255 127.782 38.7433 129.173 46.3675 131.955C55.2905 135.206 59.752 138.749 59.752 142.584C59.752 145.904 56.7969 150.573 50.8866 156.591C54.4912 158.72 57.4156 160.465 59.6598 161.825C63.6871 164.323 65.6968 167.017 65.6892 169.907Z" fill="white" stroke="black" stroke-width="6" stroke-linejoin="round"/>
<path d="M129.96 162.471C129.794 169.441 128.197 176.302 125.27 182.63C122.343 188.958 118.148 194.618 112.944 199.258C107.613 204.061 100.706 206.743 93.5304 206.798C86.9432 206.829 80.5496 204.571 75.4423 200.411C70.3654 196.262 66.3799 190.935 63.8331 184.894C61.6582 180.378 60.4488 175.458 60.2823 170.448C60.3659 160.898 63.4022 151.608 68.9748 143.852C75.6536 134.099 83.8389 129.223 93.5304 129.223C104.229 129.223 112.856 132.059 119.412 137.731C126.444 143.702 129.96 151.949 129.96 162.471Z" fill="white" stroke="black" stroke-width="6" stroke-linejoin="round"/>
<path d="M186.519 192.341C186.494 194.099 186.093 195.832 185.344 197.422C184.594 199.013 183.513 200.425 182.173 201.564C179.602 204.117 176.135 205.565 172.512 205.599C169.2 205.599 165.979 204.089 162.851 201.068C162.667 200.899 159.593 197.74 153.628 191.592C152.102 193.323 150.833 195.264 149.859 197.356C148.912 199.396 147.707 201.306 146.273 203.039C145.525 203.867 144.607 204.525 143.583 204.968C142.559 205.411 141.452 205.63 140.336 205.61C133.834 205.61 129.311 197.068 126.767 179.982C125.518 171.335 124.905 162.608 124.934 153.87C124.934 145.778 126.736 140.013 130.341 136.578C133.946 133.142 139.856 131.428 148.072 131.436C156.271 131.318 164.371 133.235 171.647 137.016C180.624 141.796 185.117 148.564 185.124 157.317C185.235 159.954 184.779 162.584 183.787 165.03C182.496 167.812 179.69 171.328 175.371 175.579C177.846 177.938 180.328 180.332 182.819 182.761C185.17 185.402 186.485 188.805 186.519 192.341Z" fill="white" stroke="black" stroke-width="6" stroke-linejoin="round"/>
<path d="M277.559 153.075C277.559 156.68 275.992 159.988 272.856 163.001C270.158 165.677 266.789 167.576 263.103 168.5C263.159 175.635 262.326 182.749 260.624 189.678C257.373 202.451 251.582 208.834 243.251 208.827C235.565 208.827 231.722 198.486 231.722 177.804C231.722 175.855 231.722 174.057 231.815 172.397L231.907 169.918L215.237 163.531C211.04 161.352 208.942 157.145 208.942 150.942C208.942 140.244 215.652 134.334 229.071 133.211C230.485 133.096 234.236 133.039 240.323 133.039C251.667 133.039 259.675 133.776 264.348 135.252C273.156 138.034 277.559 143.975 277.559 153.075Z" fill="white" stroke="black" stroke-width="6" stroke-linejoin="round"/>
<path d="M339.364 166.367C339.185 174.105 337.562 181.741 334.579 188.882C330.613 198.997 325.795 204.05 320.123 204.042C317.702 204.042 315.43 202.809 313.298 200.319L307.626 193.759C305.707 197.176 303.286 200.285 300.443 202.982C297.533 205.619 293.742 207.075 289.814 207.063C282.236 207.063 277.183 201.89 274.654 191.545C273.471 186.765 272.879 179.848 272.879 170.794C272.879 159.566 273.471 151.557 274.654 146.769C277.375 135.717 283.166 130.191 292.028 130.191C293.865 130.191 296.197 131.282 299.025 133.465C301.157 135.072 303.068 136.952 304.709 139.056C308.667 134.806 310.704 132.647 310.819 132.577C312.825 130.986 315.692 130.191 319.419 130.191C327.397 130.191 333.396 138.407 337.415 154.839C338.471 158.602 339.124 162.466 339.364 166.367Z" fill="white" stroke="black" stroke-width="6" stroke-linejoin="round"/>
<path d="M398.908 168.673C397.317 172.039 393.859 175.498 388.533 179.049C390.647 180.18 392.563 181.648 394.205 183.395C396.326 185.574 397.386 187.591 397.386 189.413C397.386 194.554 393.813 198.636 386.665 201.656C381.925 203.735 376.818 204.848 371.643 204.93C362.251 204.93 354.597 202.094 348.679 196.422C342.761 190.75 339.806 183.245 339.813 173.907C339.838 164.002 342.905 154.344 348.598 146.239C355.446 136.124 364.104 131.071 374.572 131.079C378.468 131.079 382.868 132.466 387.772 135.24C393.267 138.376 396.015 141.658 396.015 145.086C396.015 147.146 394.658 149.509 391.945 152.176C390.065 154.038 387.948 155.647 385.65 156.96L388.844 158.908C390.608 159.981 392.026 160.857 393.098 161.571C395.77 163.227 397.814 165.726 398.908 168.673Z" fill="white" stroke="black" stroke-width="6" stroke-linejoin="round"/>
<path d="M495.263 180.282C495.057 184.843 494.099 189.338 492.427 193.586C489.891 200.734 486.732 204.308 482.951 204.308C480.875 204.308 478.243 203.362 475.054 201.472C471.559 199.597 468.761 196.646 467.076 193.056C465.247 198.436 463.886 201.687 462.995 202.809C461.289 204.988 458.383 206.083 454.406 206.083C451.977 206.083 447.631 202.951 441.367 196.687L436.675 203.074C434.658 205.783 432.894 207.144 431.349 207.144C424.593 207.144 419.679 201.648 416.604 190.658C414.825 184.461 413.902 178.049 413.86 171.601C413.708 163.646 414.813 155.717 417.135 148.106C420.685 137.346 426.626 131.966 434.958 131.966C437.725 132.034 440.42 132.859 442.751 134.353C445.159 135.765 447.27 137.633 448.965 139.852C450.855 137.715 453.545 134.76 457.035 130.986C458.218 129.688 460.789 129.038 464.747 129.038C485.099 129.046 495.271 146.127 495.263 180.282Z" fill="white" stroke="black" stroke-width="6" stroke-linejoin="round"/>
<path d="M557.494 178.691C557.494 196.591 552.114 205.545 541.354 205.553C538.24 205.482 535.21 204.531 532.615 202.809C529.872 201.145 527.552 198.868 525.837 196.157C522.055 201.183 519.811 204.077 519.104 204.838C516.083 207.974 512.979 209.541 509.789 209.541C507.007 209.541 503.933 208.035 500.566 205.022C497.877 202.663 495.676 199.8 494.087 196.595C492.61 190.226 491.81 183.718 491.701 177.181C491.729 172.539 492.172 167.909 493.027 163.347C492.796 155.369 495.87 147.876 502.249 140.866C508.628 133.857 515.822 130.356 523.831 130.364C536.005 130.364 545.047 136.393 550.957 148.452C555.315 157.268 557.494 167.347 557.494 178.691Z" fill="white" stroke="black" stroke-width="6" stroke-linejoin="round"/>
<path d="M612.588 176.743C612.588 186.02 608.745 193.467 601.06 199.085C594.419 203.91 586.395 206.458 578.187 206.348C571.8 206.348 566.54 204.988 562.405 202.267C560.06 200.823 558.143 198.78 556.85 196.348C555.557 193.917 554.936 191.184 555.05 188.433C555.05 186.358 556.083 183.933 558.151 181.158C560.572 177.846 563.262 176.309 566.221 176.547C562.792 174.757 559.981 171.977 558.151 168.569C556.17 165.182 555.116 161.333 555.096 157.41C555.096 149.724 558.581 142.807 565.552 136.658C572.292 130.756 579.563 127.801 587.364 127.793C592.091 127.793 596.967 129.715 601.994 133.557C607.304 137.585 609.964 141.869 609.971 146.412C609.971 150.02 609.222 152.706 607.746 154.481C605.74 156.902 601.725 158.851 595.699 160.326C601.963 162.463 605.89 164.089 607.481 165.203C610.886 167.685 612.588 171.532 612.588 176.743Z" fill="white" stroke="black" stroke-width="6" stroke-linejoin="round"/>
<path d="M668.305 176.743C668.305 186.02 664.436 193.467 656.696 199.085C650.055 203.91 642.032 206.458 633.824 206.348C627.437 206.348 622.176 204.988 618.041 202.267C615.695 200.825 613.776 198.782 612.483 196.35C611.19 193.918 610.569 191.185 610.686 188.433C610.686 186.358 611.712 183.937 613.787 181.158C616.208 177.846 618.898 176.309 621.857 176.547C618.428 174.757 615.617 171.977 613.787 168.569C611.806 165.182 610.752 161.333 610.732 157.41C610.732 149.724 614.218 142.807 621.188 136.658C627.929 130.756 635.199 127.801 643 127.793C647.727 127.793 652.603 129.715 657.63 133.557C662.941 137.585 665.6 141.869 665.608 146.412C665.608 150.02 664.858 152.706 663.383 154.481C661.377 156.902 657.361 158.851 651.335 160.326C657.591 162.463 661.519 164.089 663.117 165.203C666.584 167.685 668.313 171.532 668.305 176.743Z" fill="white" stroke="black" stroke-width="6" stroke-linejoin="round"/>
<path d="M728.323 168.673C726.716 172.039 723.258 175.498 717.947 179.049C720.061 180.18 721.977 181.648 723.619 183.395C725.752 185.574 726.812 187.591 726.812 189.413C726.812 194.554 723.235 198.636 716.079 201.656C711.326 203.741 706.202 204.855 701.012 204.93C691.612 204.93 683.961 202.094 678.059 196.422C672.156 190.75 669.201 183.245 669.193 173.907C669.219 164.004 672.281 154.347 677.966 146.239C684.822 136.124 693.48 131.071 703.94 131.079C707.837 131.079 712.24 132.466 717.152 135.24C722.639 138.376 725.387 141.658 725.394 145.086C725.394 147.146 724.034 149.509 721.313 152.176C719.438 154.044 717.321 155.653 715.019 156.96L718.212 158.908C719.988 159.981 721.406 160.857 722.466 161.571C725.151 163.224 727.211 165.722 728.323 168.673Z" fill="white" stroke="black" stroke-width="6" stroke-linejoin="round"/>
<path d="M783.636 176.743C783.636 186.02 779.763 193.467 772.016 199.085C765.381 203.915 757.36 206.463 749.155 206.348C742.768 206.348 737.507 204.988 733.372 202.267C731.026 200.825 729.107 198.782 727.814 196.35C726.521 193.918 725.901 191.185 726.017 188.433C726.017 186.358 727.043 183.937 729.118 181.158C731.539 177.846 734.229 176.309 737.188 176.547C733.759 174.758 730.947 171.978 729.118 168.569C727.137 165.182 726.083 161.333 726.063 157.41C726.063 149.724 729.549 142.807 736.519 136.658C743.252 130.756 750.523 127.801 758.331 127.793C763.058 127.793 767.931 129.715 772.949 133.557C778.276 137.585 780.935 141.869 780.927 146.412C780.927 150.016 780.189 152.706 778.714 154.481C776.708 156.902 772.688 158.851 766.655 160.326C772.926 162.463 776.858 164.089 778.448 165.203C781.899 167.685 783.629 171.532 783.636 176.743Z" fill="white" stroke="black" stroke-width="6" stroke-linejoin="round"/>
</svg>
